<?xml version="1.0" standalone="no"?><!DOCTYPE svg PUBLIC "-//W3C//DTD SVG 1.1//EN" "http://www.w3.org/Graphics/SVG/1.1/DTD/svg11.dtd"><svg t="1621938740892" class="icon" viewBox="0 0 1024 1024" version="1.1" xmlns="http://www.w3.org/2000/svg" p-id="2364" width="64" height="64" xmlns:xlink="http://www.w3.org/1999/xlink"><defs><style type="text/css"></style></defs><path d="M512 981.333333C252.8 981.333333 42.666667 771.2 42.666667 512S252.8 42.666667 512 42.666667s469.333333 210.133333 469.333333 469.333333-210.133333 469.333333-469.333333 469.333333z m44.245333-469.333333l159.914667-159.914667a31.274667 31.274667 0 1 0-44.245333-44.245333L512 467.754667 352.085333 307.84a31.274667 31.274667 0 1 0-44.245333 44.245333L467.754667 512l-159.914667 159.914667a31.274667 31.274667 0 1 0 44.245333 44.245333L512 556.245333l159.914667 159.914667a31.274667 31.274667 0 1 0 44.245333-44.245333L556.245333 512z" fill="#FF4B33" p-id="2365"></path></svg>