<svg xmlns="http://www.w3.org/2000/svg" xmlns:xlink="http://www.w3.org/1999/xlink" width="42" height="42" viewBox="0 0 42 42"><defs><style>.a{fill:url(#a);}.b{fill:#e7ffe6;}.c{clip-path:url(#b);}.d{clip-path:url(#d);}</style><linearGradient id="a" x1="1" x2="0" y2="1" gradientUnits="objectBoundingBox"><stop offset="0" stop-color="#10d832"/><stop offset="1" stop-color="#00ac34"/></linearGradient><clipPath id="b"><rect class="a" width="42" height="42" rx="8" transform="translate(60 783)"/></clipPath><clipPath id="d"><rect class="b" width="37.233" height="33.096"/></clipPath></defs><g class="c" transform="translate(-60 -783)"><rect class="a" width="42" height="42" rx="8" transform="translate(60 783)"/><g transform="matrix(0.966, -0.259, 0.259, 0.966, -5641.551, -2527.47)"><g transform="translate(4642 4685)"><g class="d" transform="translate(0 0)"><path class="b" d="M4655.413,4706.173a1.167,1.167,0,0,1-.558.13,1.219,1.219,0,0,1-1.08-.65l-.088-.17-3.4-7.459a.642.642,0,0,1,.564-.867.688.688,0,0,1,.387.129l4.008,2.863a2.085,2.085,0,0,0,1.033.3,1.677,1.677,0,0,0,.646-.13l18.795-8.408a19.851,19.851,0,0,0-15.215-6.592c-10.259,0-18.621,6.98-18.621,15.6a14.731,14.731,0,0,0,6.421,11.789,1.289,1.289,0,0,1,.515,1,1.194,1.194,0,0,1-.087.389c-.3,1.168-.82,3.079-.82,3.163a1.55,1.55,0,0,0-.088.478.59.59,0,0,0,.6.607.49.49,0,0,0,.346-.129l4.05-2.385a2.052,2.052,0,0,1,.991-.3,2.3,2.3,0,0,1,.557.088,21.579,21.579,0,0,0,6.082.867c10.256,0,18.621-6.98,18.621-15.6a13.763,13.763,0,0,0-2.112-7.24l-21.417,12.439Zm0,0" transform="translate(-4641.886 -4685.302)"/></g></g></g></g></svg>